<?xml version="1.0" encoding="utf-8"?>
<!-- Generator: Adobe Illustrator 27.0.0, SVG Export Plug-In . SVG Version: 6.00 Build 0)  -->
<svg version="1.1" xmlns="http://www.w3.org/2000/svg" xmlns:xlink="http://www.w3.org/1999/xlink" x="0px" y="0px"
	 viewBox="0 0 1024 1024" style="enable-background:new 0 0 1024 1024;" xml:space="preserve">
<g>
</g>
<g id="Layer_11">
	<g>
		<circle style="fill:#F29F05;" cx="699.8198242" cy="284.9474182" r="117.851799"/>
		<path style="fill:#112D28;" d="M737.0616455,316.8910522c0-18.0429382-10.5706177-28.066803-31.34729-36.0858765
			c-16.9497681-6.5610352-24.4221191-12.2108765-24.4221191-23.692688c0-8.3836212,6.3788452-18.4074249,23.1463623-18.4074249
			c6.8788452,0,12.6412964,1.3955078,16.9851685,2.9776611c3.5767822,1.3027344,7.5206299-0.6292267,8.739624-4.2354431
			c1.1945801-3.5341797-0.6711426-7.3713684-4.1898804-8.6105499c-4.8736572-1.7163391-11.1939087-3.0069427-18.8806763-3.2118835
			v-14.2837677c0-3.8078918-3.0869141-6.8948669-6.8947754-6.8948669c-3.8079224,0-6.8948364,3.0869751-6.8948364,6.8948669
			v15.492157c-17.2224121,3.8526306-28.0491333,16.2937164-28.0491333,32.1017609
			c0,17.3139038,12.3931274,27.7022705,32.4407959,34.8100586c16.5852661,6.3788147,23.1463623,12.9398804,23.1463623,24.4217529
			c0,12.3930969-9.4771118,20.9589233-25.6978149,20.9589233c-7.7716064,0-15.2670288-1.8410645-21.5049438-4.4764709
			c-3.7824707-1.598053-8.1130371,0.3948669-9.2978516,4.3264771c-1.0160522,3.371521,0.6741943,6.971283,3.9247437,8.3255005
			c6.8074341,2.8360596,16.1818237,4.8292236,25.0378418,4.9363403v13.8014832c0,3.8078918,3.0869141,6.8948059,6.8948364,6.8948059
			c3.8078613,0,6.8947754-3.0869141,6.8947754-6.8948059v-15.0603333
			C727.2442627,346.7935791,737.0616455,332.737915,737.0616455,316.8910522z"/>
	</g>
</g>
</svg>
